<svg xmlns="http://www.w3.org/2000/svg" xmlns:xlink="http://www.w3.org/1999/xlink" width="282.626" height="146.491" viewBox="0 0 282.626 146.491"><defs><clipPath id="a"><rect width="288" height="41.636" fill="none"/></clipPath></defs><g transform="translate(0 107.887) rotate(-22)" clip-path="url(#a)"><g transform="translate(-35 -29)"><circle cx="4" cy="4" r="4" transform="translate(51 29)" fill="#f27979"/><circle cx="4" cy="4" r="4" transform="translate(79 29)" fill="#f27979"/><circle cx="4" cy="4" r="4" transform="translate(65 56)" fill="#f27979"/><circle cx="4" cy="4" r="4" transform="translate(38 56)" fill="#f27979"/></g><g transform="translate(20 -29)"><circle cx="4" cy="4" r="4" transform="translate(51 29)" fill="#f27979"/><circle cx="4" cy="4" r="4" transform="translate(79 29)" fill="#f27979"/><circle cx="4" cy="4" r="4" transform="translate(65 56)" fill="#f27979"/><circle cx="4" cy="4" r="4" transform="translate(38 56)" fill="#f27979"/></g><g transform="translate(75 -29)"><circle cx="4" cy="4" r="4" transform="translate(51 29)" fill="#f27979"/><circle cx="4" cy="4" r="4" transform="translate(79 29)" fill="#f27979"/><circle cx="4" cy="4" r="4" transform="translate(65 56)" fill="#f27979"/><circle cx="4" cy="4" r="4" transform="translate(38 56)" fill="#f27979"/></g><g transform="translate(130 -29)"><circle cx="4" cy="4" r="4" transform="translate(51 29)" fill="#f27979"/><circle cx="4" cy="4" r="4" transform="translate(79 29)" fill="#f27979"/><circle cx="4" cy="4" r="4" transform="translate(65 56)" fill="#f27979"/><circle cx="4" cy="4" r="4" transform="translate(38 56)" fill="#f27979"/></g><g transform="translate(185 -29)"><circle cx="4" cy="4" r="4" transform="translate(51 29)" fill="#f27979"/><circle cx="4" cy="4" r="4" transform="translate(79 29)" fill="#f27979"/><circle cx="4" cy="4" r="4" transform="translate(65 56)" fill="#f27979"/><circle cx="4" cy="4" r="4" transform="translate(38 56)" fill="#f27979"/></g><g transform="translate(240 -29)"><circle cx="4" cy="4" r="4" transform="translate(51 29)" fill="#f27979"/><circle cx="4" cy="4" r="4" transform="translate(79 29)" fill="#f27979"/><circle cx="4" cy="4" r="4" transform="translate(65 56)" fill="#f27979"/><circle cx="4" cy="4" r="4" transform="translate(38 56)" fill="#f27979"/></g></g></svg>